<svg width="30" height="30" viewBox="0 0 30 30" fill="none" xmlns="http://www.w3.org/2000/svg">
<path d="M26.2438 8.62496C26.2013 8.19746 25.9426 7.82246 25.5588 7.63121L15.5588 2.63121C15.2076 2.45496 14.7926 2.45496 14.4401 2.63121L4.44005 7.63121C4.05755 7.82371 3.7988 8.19871 3.7563 8.62496C3.74255 8.75871 2.55505 22.0837 14.4926 27.3925C14.6538 27.465 14.8263 27.5 15.0001 27.5C15.1738 27.5 15.3463 27.465 15.5076 27.3925C27.4451 22.0837 26.2576 8.75996 26.2438 8.62496ZM15.0001 24.8712C6.5388 20.7812 6.1388 12.0525 6.20755 9.54371L15.0001 5.14746L23.7863 9.54121C23.8326 12.0275 23.3763 20.8137 15.0001 24.8712Z" fill="white"/>
<path d="M13.75 15.7325L10.8837 12.8662L9.11621 14.6337L13.75 19.2675L20.8837 12.1337L19.1162 10.3662L13.75 15.7325Z" fill="white"/>
<path d="M15 2.5C8.1075 2.5 2.5 8.1075 2.5 15C2.5 21.8925 8.1075 27.5 15 27.5C21.8925 27.5 27.5 21.8925 27.5 15C27.5 8.1075 21.8925 2.5 15 2.5ZM15 25C9.48625 25 5 20.5138 5 15C5 9.48625 9.48625 5 15 5C20.5138 5 25 9.48625 25 15C25 20.5138 20.5138 25 15 25Z" fill="#09D743"/>
<path d="M12.4986 16.9837L9.62486 14.115L7.85986 15.885L12.5011 20.5162L20.8836 12.1337L19.1161 10.3662L12.4986 16.9837Z" fill="#09D743"/>
</svg>
