<svg width="31" height="22" viewBox="0 0 31 22" fill="none" xmlns="http://www.w3.org/2000/svg">
<g clip-path="url(#clip0_1277_11922)">
<path d="M17.7467 14.6258C17.4976 14.6258 17.2587 14.5585 17.0826 14.4386C16.9065 14.3187 16.8075 14.1561 16.8075 13.9866L16.8075 7.59402C16.8075 7.42448 16.9065 7.26188 17.0826 7.142C17.2587 7.02211 17.4976 6.95476 17.7467 6.95476C17.9958 6.95476 18.2347 7.02211 18.4109 7.142C18.587 7.26188 18.686 7.42448 18.686 7.59402L18.686 13.9866C18.686 14.1561 18.587 14.3187 18.4109 14.4386C18.2347 14.5585 17.9958 14.6258 17.7467 14.6258ZM14.9291 13.9866L14.9291 7.59402C14.9291 7.42448 14.8301 7.26188 14.654 7.142C14.4778 7.02211 14.2389 6.95476 13.9898 6.95476C13.7407 6.95476 13.5018 7.02211 13.3257 7.142C13.1496 7.26188 13.0506 7.42448 13.0506 7.59402L13.0506 13.9866C13.0506 14.1561 13.1496 14.3187 13.3257 14.4386C13.5018 14.5585 13.7407 14.6258 13.9898 14.6258C14.2389 14.6258 14.4778 14.5585 14.654 14.4386C14.8301 14.3187 14.9291 14.1561 14.9291 13.9866ZM18.686 21.0184L15.8683 21.0184C14.8722 21.0177 13.9173 20.748 13.213 20.2686C12.5087 19.7893 12.1125 19.1393 12.1114 18.4614L12.1114 18.0461C10.4231 17.5219 8.94161 16.5075 7.74304 15.039C6.37201 13.3592 5.75188 11.5612 5.59456 11.0501C5.54136 10.8788 5.54136 10.7018 5.59456 10.5304C5.75188 10.0194 6.37201 8.22137 7.74304 6.54148C8.94173 5.07311 10.423 4.05877 12.1114 3.5345L12.1114 3.11922C12.1125 2.44129 12.5087 1.79134 13.213 1.31197C13.9173 0.832601 14.8722 0.562956 15.8683 0.562194L18.686 0.562194C19.682 0.562956 20.6369 0.832601 21.3413 1.31197C22.0456 1.79134 22.4417 2.44129 22.4429 3.11922L22.4429 3.20161C22.6969 3.26638 22.9274 3.36775 23.1186 3.49879C23.3097 3.62982 23.457 3.78743 23.5503 3.9608L26.9657 10.3534C27.1163 10.6357 27.1163 10.945 26.9657 11.2272L23.5504 17.6198C23.4571 17.7932 23.3097 17.9508 23.1186 18.0818C22.9274 18.2128 22.6969 18.3142 22.4429 18.3789L22.4429 18.4614C22.4417 19.1393 22.0456 19.7893 21.3413 20.2686C20.6369 20.748 19.682 21.0177 18.686 21.0184ZM13.9898 3.16341C14.3011 3.13412 14.6149 3.11935 14.9291 3.11922L20.5644 3.11922C20.5639 2.78026 20.3658 2.45528 20.0136 2.2156C19.6615 1.97591 19.184 1.84109 18.686 1.84071L15.8683 1.84071C15.3703 1.84109 14.8928 1.97591 14.5406 2.2156C14.1885 2.45528 13.9904 2.78026 13.9898 3.11922L13.9898 3.16341ZM14.9291 17.1829L21.7849 17.1829L25.2003 10.7903L21.7851 4.39774L14.9291 4.39774C9.55739 4.39774 7.63456 10.1383 7.43298 10.7928C7.63456 11.4424 9.55739 17.1829 14.9291 17.1829ZM18.686 19.7399C19.184 19.7395 19.6614 19.6047 20.0136 19.365C20.3658 19.1253 20.5639 18.8004 20.5644 18.4614L14.9291 18.4614C14.6149 18.4613 14.3011 18.4465 13.9898 18.4172L13.9898 18.4614C13.9904 18.8004 14.1885 19.1253 14.5406 19.365C14.8928 19.6047 15.3703 19.7395 15.8683 19.7399L18.686 19.7399Z" fill="white"/>
</g>
<defs>
<clipPath id="clip0_1277_11922">
<rect width="20.4562" height="30.0552" fill="white" transform="translate(30.8958 0.562195) rotate(90)"/>
</clipPath>
</defs>
</svg>
